<?xml version="1.0" encoding="UTF-8"?>
<svg id="Layer_1" data-name="Layer 1" xmlns="http://www.w3.org/2000/svg" viewBox="0 0 1080 1080">
  <defs>
    <style>
      .cls-1 {
        fill: #231f20;
      }
    </style>
  </defs>
  <path class="cls-1" d="M0,540C0,241.76,241.76,0,540,0h0c298.23,0,539.99,241.76,540,540h0c0,298.23-241.76,539.99-540,540h0C241.76,1080,0,838.24,0,540h0ZM165.45,165.45C69.59,261.32,10.31,393.71,10.31,540h0c0,146.29,59.28,278.68,155.14,374.55h0c95.88,95.86,228.26,155.14,374.55,155.14h0c146.29,0,278.68-59.28,374.55-155.14h0c95.86-95.87,155.14-228.26,155.14-374.55h0c0-146.29-59.28-278.68-155.14-374.55h0C818.68,69.59,686.29,10.31,540,10.31h0c-146.29,0-278.68,59.28-374.55,155.14h0ZM157.12,540c0-211.46,171.42-382.88,382.88-382.88h0c211.46,0,382.87,171.42,382.87,382.88h0c0,211.46-171.42,382.87-382.88,382.87h0c-211.46,0-382.88-171.41-382.88-382.87h0ZM276.55,276.55c-67.43,67.44-109.12,160.55-109.12,263.45h0c0,102.9,41.69,196.01,109.12,263.44h0c67.44,67.43,160.55,109.12,263.45,109.12h0c102.9,0,196.01-41.7,263.44-109.12h0c67.43-67.44,109.12-160.55,109.12-263.44h0c0-102.9-41.7-196.01-109.12-263.45h0c-67.44-67.43-160.55-109.12-263.44-109.12h0c-102.9,0-196.01,41.69-263.45,109.12h0ZM722.12,401.81c1.09,3.18-2.7,5.45-5.73,4.02-15.79-7.45-33.23-.39-33.23-.39l16.61,16.6c7.44-1.72,8.59-10.88,8.59-10.88,12.6,11.45,7.44,28.63,7.44,28.63,18.9,18.9,35.5,46.38,35.5,46.38-.58,8.59-5.15,14.89-5.15,14.89,4.01,8.59,4.01,28.06,4.01,28.06,0,49.24-21.18,58.41-21.18,58.41-3.44-37.22-21.19-38.94-21.19-38.94,3.44-20.04,10.88-32.64,24.62-41.8,13.74-9.16,13.17-21.19,13.17-21.19-15.46,8.02-27.49,8.59-27.49,8.59-16.53,0-34.42-5.41-43.99-8.8-3.24-1.15-6.98,1.15-6.14,4.49,4.37,17.48,24.73,20.13,32.38,27.78,8.59,8.59,3.44,30.92,3.44,30.92-20.04,0-37.22,24.62-66.42,24.62-15.1,0-27.25-4.52-34.72-8.27-3.17-1.59-6.95,1.09-5.9,4.48,4.74,15.32,14.57,26.17,45.2,11.81,36.65-17.18,55.55-20.61,60.13-20.61s24.05,3.44,24.05,35.5-15.46,49.82-15.46,49.82l-7.44-7.45c-16.61,24.62-57.26,20.61-57.26,20.61-3.44-20.04-16.6-32.07-47.53-32.07s-41.07-6.09-41.07-6.09c0,0,13.22,12.39,35.52,28.09,22.31,15.69,152,87.56,126.39,188.33,0,0,57.82-32.21,63.6-100.78,5.78-68.56-28.91-109.04-28.91-109.04,0,0,86.91,42.95,56.17,130.51,0,0,61.95-69.39,61.95-147.86s-68.56-113.17-68.56-113.17c0,0,57.82-2.48,83.43,45.43,0,0,17.35-102.43-103.26-142.08,0,0,41.31-15.7,83.43,19,0,0-17.35-47.09-86.74-72.69-69.39-25.61-109.04-9.09-123.08-2.48,45.12,16.73,60,43.51,64.83,57.59ZM637.35,361.34s23.48-65.28,83.03-65.28c45.81,0,58.41,37.22,58.41,37.22,0,0,6.87-18.32,2.29-45.24,0,0-21.18-22.9-53.82-42.95,0,0-52.68,2.29-84.18,83.03,0,0-7.45-63.56,52.11-100.78,0,0-68.14-37.79-143.15-36.08,0,0,74.44,38.37,82.46,147.16,0,0-31.5-106.51-154.61-142.58,0,0-71.58,12.03-130.56,53.25,0,0,164.92-41.8,288.03,112.23ZM601.27,343.59s-114.53-114.52-313.23-42.95c0,0-60.7,50.96-88.76,166.06,0,0,109.94-160.33,315.51-139.72,0,0-232.49,8.59-321.24,239.36,0,0,3.44,95.63,67.57,180.38,0,0-21.76-140.86,110.52-288.6,132.28-147.74,229.62-114.52,229.62-114.52ZM484.65,411.96s-74.34,58.65-74.34,223.86,107.39,244.51,131.34,251.95c0,0,13.22-43.78,13.22-94.17s-20.65-99.13-56.17-160.26c-35.52-61.13-47.91-120.6-14.04-221.38ZM649.37,718.08c-67-66.42-165.49-98.49-152.89-219.88,0,0,2.86,16.03,21.19,28.63,18.32,12.6,20.04,30.35,20.04,30.35,0,0,7.45-33.21-21.76-66.43-29.2-33.21-22.33-68.71-22.33-68.71,0,0-10.88,35.5-10.88,80.17s13.74,85.32,27.49,114.52c24.05,58.98,112.81,135.14,73.29,267.42,0,0,58.41-5.15,93.91-25.77,0,0,38.94-76.16-28.06-140.29ZM384.82,609.29s6.87-146.59,108.8-226.76c0,0-254.24,140.86-183.24,418.01,0,0,58.41,58.41,158.04,79.02,0,0-95.05-95.05-83.6-270.28ZM551.95,416.75c-.03,1.62,1.66,1.75,2.78.58,4.42-4.63,10.46-3.88,10.46-3.88,0,0,2.86,12.6,16.6,12.6s13.17-10.88,13.17-10.88h2.29l.41,7.71c6.87.57,10.42,3.59,10.42,3.59,8.39,6.57,11.46,2.43,11.46,2.43-12.38-16.44-28.13-26.28-28.13-26.28l-34.81,3.95c-4.07,2.51-4.6,6.86-4.66,10.17ZM86.69,635.93c2.23-.51,4.32-.15,6.25,1.07,1.93,1.22,3.16,2.94,3.66,5.15.51,2.23.16,4.32-1.05,6.26-1.21,1.94-2.93,3.17-5.16,3.68-2.23.51-4.32.15-6.27-1.07-1.95-1.22-3.18-2.95-3.69-5.18-.51-2.21-.15-4.29,1.07-6.23,1.22-1.95,2.95-3.17,5.18-3.69ZM82.14,706.43l44.39-18.15,6.25,15.29c1.41,3.45,2.28,6.17,2.6,8.16.45,2.79.28,5.39-.52,7.81-1.02,3.15-2.83,5.93-5.44,8.35-2.61,2.42-5.88,4.44-9.84,6.05-3.37,1.38-6.52,2.21-9.45,2.48-2.93.28-5.49.15-7.7-.38-2.21-.54-4.1-1.34-5.68-2.4-1.58-1.07-3.04-2.53-4.39-4.39-1.35-1.87-2.58-4.14-3.67-6.82l-6.55-16.02ZM89.78,710.17l3.87,9.48c1.2,2.93,2.41,5.11,3.63,6.55,1.23,1.44,2.54,2.46,3.93,3.04,1.96.82,4.28,1.14,6.95.96,2.67-.18,5.68-.96,9.03-2.33,4.64-1.9,7.9-4.12,9.77-6.66,1.87-2.54,2.78-5.08,2.74-7.6-.04-1.82-.77-4.48-2.2-7.97l-3.81-9.33-33.91,13.86ZM107.11,762.61l42.49-22.23,2.94,5.62-42.49,22.23-2.94-5.62ZM132.99,778.48l3.68,4.75c-1.86,1.54-3.16,3.15-3.89,4.86-.73,1.7-.91,3.73-.52,6.08.38,2.35,1.31,4.67,2.79,6.96,1.31,2.03,2.77,3.64,4.38,4.8,1.61,1.17,3.19,1.8,4.73,1.88,1.54.08,2.94-.28,4.19-1.08,1.27-.82,2.13-1.89,2.61-3.23.47-1.34.48-3.06.04-5.16-.27-1.35-1.16-4.17-2.65-8.45-1.5-4.28-2.33-7.41-2.5-9.4-.23-2.57.1-4.81.98-6.72.89-1.91,2.26-3.46,4.11-4.65,2.03-1.31,4.31-1.96,6.82-1.94,2.51.01,4.94.84,7.29,2.46,2.34,1.63,4.39,3.8,6.14,6.52,1.92,2.99,3.14,5.94,3.65,8.84.51,2.9.22,5.57-.86,8.01-1.08,2.43-2.77,4.46-5.08,6.07l-3.68-4.87c2.37-1.92,3.7-4.09,3.98-6.51.28-2.43-.58-5.19-2.57-8.29-2.08-3.23-4.18-5.2-6.31-5.91-2.13-.72-4.03-.54-5.7.54-1.45.93-2.3,2.22-2.57,3.87-.27,1.63.5,4.93,2.31,9.9,1.81,4.97,2.87,8.5,3.17,10.58.43,3.04.17,5.66-.77,7.85-.94,2.19-2.49,3.98-4.65,5.37-2.15,1.38-4.56,2.07-7.25,2.06-2.69,0-5.3-.82-7.84-2.44-2.54-1.62-4.73-3.87-6.58-6.75-2.35-3.65-3.79-7.05-4.31-10.2-.52-3.15-.17-6.12,1.06-8.9,1.23-2.78,3.17-5.07,5.82-6.88ZM160.78,845.05l32.77-26.74-9.99-12.24,4.39-3.58,24.03,29.46-4.39,3.58-10.03-12.29-32.77,26.74-4.01-4.92ZM187.47,876.03l33.41-34.41,15.26,14.81c3.07,2.98,5.1,5.55,6.09,7.72,1,2.17,1.21,4.5.65,6.99s-1.77,4.68-3.6,6.58c-2.37,2.44-5.16,3.73-8.36,3.87-3.21.14-6.68-1.16-10.42-3.92.64,1.75,1,3.21,1.08,4.38.15,2.51-.08,5.26-.66,8.24l-3.11,15.18-5.73-5.56,2.4-11.58c.67-3.36,1.11-6,1.32-7.93.2-1.93.18-3.45-.08-4.55-.25-1.1-.65-2.07-1.19-2.93-.41-.61-1.2-1.49-2.38-2.63l-5.28-5.13-14.84,15.28-4.55-4.42ZM210.68,861.23l9.79,9.5c2.08,2.02,3.92,3.39,5.51,4.1,1.59.7,3.15.89,4.68.53,1.53-.36,2.83-1.09,3.91-2.2,1.58-1.63,2.29-3.54,2.12-5.73-.16-2.19-1.52-4.53-4.07-7.01l-10.89-10.58-11.05,11.38ZM232.8,917.48l30.06-37.37,4.94,3.98-30.06,37.36-4.95-3.98ZM255.9,935.56l26.6-39.9,14.97,9.98c3.05,2.03,5.22,4.07,6.53,6.1,1.3,2.03,1.92,4.24,1.84,6.61-.08,2.37-.72,4.48-1.95,6.31-1.14,1.7-2.67,3-4.6,3.89-1.93.89-4.14,1.17-6.62.85,1.94,2.32,2.99,4.76,3.15,7.33.16,2.57-.53,5.02-2.08,7.34-1.24,1.87-2.8,3.35-4.66,4.42-1.86,1.08-3.66,1.67-5.4,1.76-1.74.1-3.64-.21-5.68-.94-2.05-.72-4.34-1.93-6.88-3.63l-15.22-10.14ZM264.32,934.37l9.94,6.62c1.71,1.13,2.95,1.87,3.72,2.2,1.36.6,2.62.91,3.77.95,1.16.04,2.32-.25,3.49-.88,1.17-.62,2.18-1.57,3.03-2.84.99-1.49,1.47-3.03,1.44-4.64-.03-1.6-.57-3.08-1.63-4.43-1.06-1.35-2.86-2.87-5.4-4.56l-9.23-6.15-9.15,13.72ZM276.61,915.95l8.63,5.75c2.34,1.56,4.12,2.52,5.34,2.89,1.61.5,3.06.51,4.36.04,1.3-.47,2.41-1.41,3.34-2.8.88-1.33,1.34-2.7,1.38-4.13.04-1.43-.41-2.72-1.34-3.89-.93-1.16-2.83-2.69-5.7-4.6l-7.98-5.31-8.04,12.06ZM353.72,937.51l5.67,2.86-12.49,24.73c-2.17,4.3-4.38,7.48-6.63,9.52-2.25,2.04-5.05,3.21-8.39,3.51-3.34.31-7.08-.59-11.2-2.67-4.01-2.03-6.94-4.37-8.8-7.04-1.85-2.67-2.66-5.59-2.43-8.76.23-3.17,1.49-7.02,3.78-11.56l12.48-24.73,5.67,2.86-12.47,24.71c-1.88,3.72-2.92,6.63-3.11,8.74-.2,2.11.3,4.07,1.51,5.87,1.2,1.81,3.02,3.32,5.45,4.55,4.17,2.1,7.61,2.66,10.34,1.66,2.72-.99,5.45-4.18,8.16-9.55l12.47-24.7ZM359.74,992.2l17.49-44.65,5.91,2.32-17.49,44.65-5.91-2.32ZM387.4,1002.65l13.21-46.1,15.88,4.55c3.58,1.03,6.26,2.03,8.02,3.01,2.47,1.36,4.41,3.11,5.81,5.24,1.84,2.75,2.91,5.9,3.2,9.44.29,3.54-.15,7.37-1.33,11.48-1,3.5-2.3,6.49-3.89,8.96-1.59,2.47-3.28,4.41-5.07,5.81-1.79,1.41-3.59,2.4-5.4,2.98-1.81.58-3.87.83-6.17.73-2.3-.09-4.85-.54-7.63-1.34l-16.64-4.77ZM395.06,998.96l9.84,2.82c3.04.87,5.51,1.27,7.4,1.2,1.89-.07,3.5-.47,4.82-1.2,1.86-1.03,3.55-2.65,5.05-4.86s2.76-5.06,3.76-8.54c1.38-4.82,1.65-8.75.81-11.8-.84-3.04-2.27-5.33-4.28-6.86-1.46-1.09-4-2.16-7.62-3.2l-9.69-2.78-10.09,35.22ZM447.48,994.65c1.19-7.87,4.24-13.71,9.14-17.53,4.9-3.81,10.69-5.21,17.38-4.2,4.38.66,8.16,2.31,11.36,4.93,3.2,2.62,5.44,5.95,6.71,9.96,1.28,4.02,1.56,8.4.84,13.15-.73,4.81-2.35,8.97-4.86,12.46-2.51,3.5-5.7,5.96-9.55,7.37-3.85,1.42-7.84,1.81-11.96,1.18-4.46-.67-8.29-2.36-11.48-5.05-3.19-2.69-5.41-6.04-6.65-10.04-1.25-4-1.56-8.09-.92-12.25ZM453.94,995.72c-.86,5.72,0,10.45,2.57,14.21,2.58,3.75,6.18,5.98,10.82,6.68,4.72.71,8.86-.36,12.41-3.22,3.55-2.86,5.79-7.34,6.72-13.44.59-3.86.44-7.33-.43-10.4-.87-3.08-2.44-5.6-4.71-7.56-2.27-1.97-4.97-3.18-8.1-3.66-4.44-.67-8.49.28-12.16,2.84-3.67,2.57-6.04,7.42-7.12,14.55ZM509.65,1026.1l1.11-47.95,21.26.49c4.27.1,7.51.6,9.72,1.52,2.2.91,3.95,2.48,5.22,4.68,1.28,2.21,1.89,4.64,1.83,7.27-.08,3.4-1.25,6.24-3.5,8.53-2.26,2.29-5.69,3.69-10.31,4.21,1.66.85,2.92,1.67,3.77,2.47,1.82,1.74,3.52,3.91,5.12,6.5l8.04,13.24-7.98-.18-6.12-10.12c-1.79-2.92-3.26-5.15-4.43-6.71-1.16-1.55-2.21-2.64-3.15-3.28-.93-.63-1.89-1.08-2.86-1.34-.72-.17-1.89-.27-3.53-.31l-7.36-.17-.49,21.29-6.34-.15ZM516.61,999.46l13.64.32c2.9.07,5.17-.18,6.82-.74,1.65-.56,2.91-1.49,3.79-2.79.88-1.3,1.34-2.72,1.37-4.27.05-2.27-.73-4.15-2.34-5.65-1.61-1.5-4.2-2.29-7.75-2.37l-15.18-.35-.37,15.86ZM591.69,1024.47l10.99-50.19,6.76-1.03,26.62,44.46-7.15,1.09-7.72-13.52-19.82,3.02-3.02,15.15-6.66,1.02ZM602.41,1002.92l16.07-2.45-6.95-12.37c-2.12-3.76-3.74-6.86-4.86-9.32-.14,3.13-.53,6.28-1.17,9.44l-3.09,14.7ZM670.21,959.26l6.11-1.7,7.45,26.69c1.3,4.64,1.8,8.48,1.51,11.5-.29,3.03-1.56,5.78-3.83,8.25-2.26,2.48-5.62,4.33-10.07,5.58-4.33,1.21-8.08,1.45-11.25.73-3.17-.72-5.73-2.33-7.7-4.83-1.97-2.5-3.63-6.19-5-11.09l-7.45-26.69,6.11-1.7,7.44,26.66c1.12,4.01,2.31,6.86,3.59,8.56,1.28,1.69,2.97,2.8,5.07,3.32,2.11.52,4.47.42,7.1-.32,4.5-1.25,7.42-3.17,8.76-5.74,1.35-2.57,1.2-6.76-.41-12.56l-7.44-26.66ZM721.87,991.55l-16.06-39.13-14.62,6.01-2.15-5.24,35.17-14.44,2.15,5.23-14.68,6.03,16.07,39.13-5.87,2.41ZM745.07,956.2c-3.87-6.96-5.04-13.44-3.49-19.45,1.54-6.01,5.27-10.67,11.18-13.95,3.87-2.15,7.87-3.17,12-3.05,4.14.12,7.94,1.38,11.41,3.78,3.47,2.4,6.37,5.69,8.71,9.88,2.37,4.25,3.62,8.53,3.77,12.84.15,4.31-.86,8.2-3.05,11.68-2.18,3.48-5.1,6.23-8.74,8.25-3.95,2.2-8,3.2-12.17,3.03s-7.97-1.47-11.4-3.87c-3.44-2.41-6.18-5.45-8.22-9.13ZM750.83,953.11c2.81,5.05,6.38,8.27,10.72,9.67,4.33,1.4,8.55.95,12.64-1.33,4.17-2.32,6.79-5.7,7.86-10.14,1.06-4.44.09-9.35-2.91-14.74-1.9-3.41-4.13-6.07-6.7-7.97-2.57-1.9-5.35-2.94-8.35-3.1-3-.16-5.89.52-8.64,2.06-3.93,2.18-6.56,5.41-7.88,9.69-1.33,4.27-.24,9.56,3.27,15.87ZM813.5,943.04l-28.48-38.58,17.11-12.63c3.44-2.54,6.31-4.12,8.61-4.75,2.3-.63,4.63-.46,7,.51,2.37.96,4.34,2.51,5.9,4.63,2.02,2.74,2.84,5.7,2.45,8.88-.39,3.19-2.24,6.4-5.57,9.64,1.83-.35,3.33-.47,4.5-.35,2.5.27,5.17.94,8.03,2.01l14.46,5.55-6.42,4.74-11.03-4.26c-3.2-1.22-5.74-2.08-7.61-2.6-1.87-.51-3.37-.74-4.5-.67-1.13.07-2.15.31-3.09.69-.67.31-1.66.94-2.98,1.92l-5.92,4.37,12.65,17.14-5.11,3.77ZM802.69,917.72l10.98-8.1c2.33-1.72,3.98-3.31,4.94-4.76.96-1.46,1.39-2.97,1.29-4.53-.1-1.57-.61-2.97-1.53-4.22-1.35-1.83-3.12-2.84-5.31-3.03-2.19-.2-4.72.76-7.58,2.87l-12.21,9.02,9.42,12.76ZM861.79,905.12l-31.95-35.77,4.73-4.23,31.95,35.77-4.73,4.23ZM880.92,887.82l-4.28-4.04-5.48-38.95c-.39-2.76-.63-5.27-.73-7.52l-18.36,19.47-4.12-3.89,23.57-24.98,4.11,3.88,5.72,42.41.45,4.43,21.01-22.27,4.12,3.88-26.02,27.58ZM915.9,849.93l-27.28-43.53,4.11-5.47,50.13,13.11-4.34,5.78-14.97-4.25-12.04,16.03,8.45,12.94-4.05,5.39ZM908.47,827.04l9.76-13-13.63-3.97c-4.14-1.2-7.47-2.29-10-3.25,2.09,2.34,4.02,4.86,5.77,7.57l8.09,12.66ZM952.16,799.59l-41.52-23.99,8.27-14.31c1.87-3.23,3.49-5.58,4.86-7.05,1.92-2.06,4.09-3.52,6.5-4.37,3.11-1.12,6.43-1.39,9.93-.81,3.51.58,7.11,1.93,10.81,4.07,3.15,1.82,5.73,3.8,7.75,5.95,2.01,2.14,3.48,4.25,4.41,6.32.93,2.07,1.46,4.06,1.58,5.96.12,1.9-.13,3.95-.79,6.16-.64,2.21-1.69,4.57-3.14,7.08l-8.66,14.98ZM950.44,791.26l5.12-8.86c1.58-2.74,2.57-5.03,2.96-6.88.39-1.85.39-3.51,0-4.97-.55-2.06-1.71-4.08-3.5-6.08-1.78-2-4.24-3.9-7.37-5.71-4.34-2.51-8.09-3.72-11.25-3.65-3.16.08-5.72.91-7.69,2.49-1.42,1.15-3.07,3.35-4.96,6.62l-5.04,8.73,31.72,18.33ZM958.95,739.4c-7.34-3.07-12.27-7.44-14.78-13.12-2.51-5.68-2.46-11.64.14-17.88,1.71-4.08,4.22-7.36,7.54-9.82,3.32-2.47,7.09-3.83,11.3-4.09,4.21-.26,8.53.53,12.95,2.38,4.49,1.88,8.12,4.46,10.91,7.75s4.4,6.98,4.83,11.06c.44,4.08-.15,8.05-1.75,11.89-1.74,4.16-4.3,7.47-7.68,9.91-3.38,2.44-7.16,3.78-11.35,4.02-4.19.23-8.22-.46-12.11-2.08ZM961.56,733.4c5.34,2.22,10.13,2.55,14.4.96,4.27-1.58,7.3-4.54,9.11-8.87,1.84-4.41,1.8-8.68-.1-12.82-1.91-4.14-5.72-7.4-11.41-9.78-3.6-1.5-7-2.21-10.2-2.11-3.19.1-6.02,1.01-8.48,2.73-2.46,1.73-4.29,4.05-5.51,6.97-1.73,4.14-1.79,8.31-.2,12.48,1.6,4.18,5.73,7.66,12.39,10.44ZM989.27,653.41c-2.23-.52-3.95-1.75-5.15-3.7-1.2-1.95-1.55-4.03-1.03-6.23.52-2.23,1.75-3.96,3.69-5.17,1.94-1.21,4.03-1.56,6.26-1.05,2.23.52,3.95,1.76,5.17,3.71s1.56,4.04,1.04,6.27c-.52,2.21-1.75,3.92-3.7,5.13-1.95,1.21-4.04,1.56-6.27,1.04ZM1013.61,464.81c3.68,0,7.21.92,10.6,2.76,3.38,1.84,6.05,4.48,7.98,7.92,1.93,3.44,2.9,7.04,2.9,10.79s-.95,7.3-2.85,10.69c-1.9,3.39-4.54,6.04-7.93,7.93-3.4,1.9-6.96,2.85-10.7,2.85s-7.3-.95-10.69-2.85c-3.39-1.9-6.04-4.54-7.94-7.93-1.9-3.39-2.85-6.96-2.85-10.69s.97-7.35,2.9-10.79c1.94-3.44,4.6-6.08,7.98-7.92,3.39-1.84,6.92-2.76,10.6-2.76ZM1013.64,469.02c-2.95,0-5.78.74-8.5,2.21-2.71,1.48-4.84,3.6-6.4,6.36-1.56,2.77-2.35,5.66-2.35,8.69s.76,5.88,2.29,8.61c1.52,2.73,3.65,4.86,6.38,6.39,2.72,1.53,5.58,2.3,8.58,2.3s5.87-.77,8.59-2.3c2.72-1.53,4.85-3.66,6.38-6.39,1.53-2.73,2.3-5.6,2.3-8.61s-.78-5.92-2.34-8.69c-1.56-2.76-3.7-4.88-6.42-6.36-2.72-1.47-5.56-2.21-8.51-2.21ZM1003.91,497.78v-22.79h4.63c4.33,0,6.76.02,7.29.06,1.54.13,2.72.43,3.57.91.85.48,1.56,1.21,2.13,2.19.57.98.86,2.07.86,3.27,0,1.65-.54,3.05-1.61,4.22-1.08,1.17-2.59,1.89-4.53,2.17.69.26,1.22.55,1.6.85.37.31.89.89,1.54,1.75.17.23.72,1.15,1.68,2.78l2.69,4.6h-5.72l-1.91-3.7c-1.29-2.49-2.36-4.05-3.19-4.69-.84-.65-1.91-.97-3.2-.97h-1.2v9.36h-4.63ZM1008.54,484.83h1.88c2.67,0,4.33-.1,4.98-.31.65-.2,1.15-.57,1.53-1.08.37-.52.56-1.1.56-1.75s-.18-1.2-.55-1.7c-.36-.49-.89-.85-1.56-1.07-.67-.21-2.32-.32-4.96-.32h-1.88v6.22ZM136.15,400.48l-2.96,11.33-26.76,7.19-6.58,25.18,23.29,6.09-2.59,9.89-63.37-16.57,10.71-40.97c1.41-5.39,4.35-9.2,8.82-11.43,4.47-2.23,9.77-2.55,15.88-.96,10.51,2.75,15.84,8.63,15.97,17.65l27.59-7.41ZM96.45,411.68c1.57-5.99-.53-9.74-6.3-11.25-6.11-1.6-10.01.79-11.67,7.16l-7.59,29.02,17.83,4.66,7.74-29.59ZM152.04,292.53c9.44,5.08,15.4,12.45,17.86,22.1,2.1,8.23.94,16.47-3.51,24.72-4.44,8.25-10.69,13.79-18.74,16.62-9.35,3.29-18.78,2.38-28.28-2.74-9.38-5.05-15.26-12.4-17.64-22.07-2.12-8.5-1.01-16.77,3.32-24.82,4.31-8,10.59-13.46,18.85-16.37,9.44-3.3,18.82-2.45,28.14,2.56ZM146.95,301.88c-5.95-3.2-11.91-3.89-17.87-2.05-5.96,1.84-10.59,5.83-13.91,12-3.34,6.21-4.13,12.33-2.36,18.36,1.77,6.02,5.6,10.62,11.49,13.79,6.14,3.3,12.15,4.05,18.01,2.23,5.87-1.82,10.51-5.91,13.94-12.27,3.4-6.31,4.23-12.41,2.5-18.28-1.73-5.88-5.66-10.46-11.81-13.77ZM190.54,192.77l10.6,48.53,19.52,16.84-6.68,7.74-19.52-16.84-49.45-3.5,8.15-9.44,37.26,2.54-7.97-36.5,8.09-9.38ZM304.85,183.13l-8.86,6.95-13.42-7.34-27.71,21.73,3.93,14.78-8.86,6.95-17.96-69.16,9.99-7.84,62.88,33.93ZM271.46,176.84l-27.7-15.15,8.03,30.57,19.67-15.42ZM378.71,144.64l-45.53,22.3-28.82-58.82,9.18-4.5,23.75,48.49,36.35-17.8,5.06,10.33ZM491.8,50.68c5.52-.71,10.16.58,13.91,3.89,3.75,3.31,6.03,8.1,6.85,14.36.85,6.55-.2,11.82-3.15,15.82-2.95,4-7.6,6.41-13.97,7.24l-30.17,3.91,3.1,23.87-10.14,1.32-8.43-64.96,42-5.45ZM494.12,80.56c6.14-.8,8.83-4.15,8.06-10.06-.81-6.27-4.49-8.98-11.02-8.13l-29.74,3.86,2.37,18.27,30.33-3.94ZM613.68,119.18l-11.66-1.12-11.35-25.27-25.91-2.49-2.31,23.96-10.18-.98,6.27-65.2,42.15,4.05c5.54.53,9.77,2.83,12.69,6.89,2.92,4.06,4.08,9.24,3.47,15.53-1.04,10.81-6,17.01-14.88,18.58l11.7,26.06ZM596.3,81.77c6.17.59,9.53-2.08,10.1-8.01.61-6.29-2.37-9.75-8.93-10.38l-29.85-2.87-1.76,18.34,30.45,2.93ZM703.95,145.6l-53.5-17.86,20.75-62.13,51.65,17.24-3.64,10.91-41.95-14.01-4.49,13.44,29.17,9.74-3.64,10.91-29.18-9.74-5.33,15.96,43.81,14.63-3.64,10.91ZM800.92,142.16c-3.58-7.32-8.81-13.03-15.7-17.12-10.02-5.94-16.35-6.69-18.99-2.23-1.56,2.63-.69,5.45,2.6,8.48,4.8,3.59,9.59,7.22,14.35,10.87,6.83,5.29,11.11,10.06,12.82,14.29,1.91,4.69,1.27,9.72-1.92,15.09-3.59,6.04-8.52,9.43-14.8,10.16-6.28.73-13.52-1.34-21.73-6.21-11.58-6.87-18.88-15.66-21.9-26.38l9.38-4.96c2.98,9.12,8.99,16.36,18.02,21.72,5.08,3.01,9.49,4.54,13.24,4.57,3.74.04,6.42-1.29,8.01-3.98,1.77-2.99,1.32-6.11-1.38-9.36-1.51-1.8-4.19-4.01-8.05-6.63-6.03-4.08-9.7-6.63-11.01-7.65-5.17-3.98-8.39-7.91-9.65-11.79-1.26-3.89-.57-8.06,2.08-12.51,3.19-5.37,7.83-8.38,13.92-9.02,6.09-.64,12.95,1.31,20.57,5.83,10.16,6.03,16.76,13.66,19.8,22.9l-9.66,3.93ZM883.69,203.71l-18.6-16.78-36.16,40.1-7.6-6.85,36.17-40.1-18.6-16.78,7.7-8.54,44.8,40.4-7.7,8.54ZM875.39,277.41l-6.41-7.97,51.06-41.03,6.4,7.97-51.06,41.03ZM962.68,350.84l-1.77.96c-9.34,5.05-18.39,6.41-27.14,4.07-8.75-2.34-15.58-8.06-20.5-17.15-4.43-8.2-5.62-16.43-3.56-24.71,2.38-9.62,8.32-17,17.82-22.13,9.37-5.07,18.73-5.96,28.09-2.69,8.24,2.84,14.64,8.49,19.21,16.93,5.51,10.19,5.61,21.05.3,32.58l-9.83-5.65c3.14-7.78,2.84-15.12-.89-22.02-3.3-6.11-7.97-10.09-13.98-11.94-6.02-1.86-11.97-1.19-17.86,1.99-6.07,3.28-9.98,7.89-11.71,13.81-1.73,5.92-.89,12.03,2.52,18.34,5.12,9.46,12.82,13.41,23.12,11.86l-11.23-20.76,10.12-5.47,17.31,32ZM959.14,457.96l-14.74-54.45,63.23-17.11,14.22,52.56-11.11,3-11.55-42.68-13.68,3.7,8.04,29.69-11.1,3-8.04-29.69-16.24,4.4,12.06,44.58-11.1,3Z"/>
</svg>