<?xml version="1.0" encoding="UTF-8"?>
<svg id="Objects" xmlns="http://www.w3.org/2000/svg" viewBox="0 0 512 512">
  <defs>
    <style>
      .cls-1 {
        fill: #1d1d1b;
      }
    </style>
  </defs>
  <path class="cls-1" d="M256.96,512c-14.23,0-28.56-1.18-42.88-3.58-67.53-11.29-126.62-48.16-166.38-103.81C7.94,348.95-7.73,281.16,3.58,213.74,14.89,146.31,51.82,87.32,107.57,47.63,163.32,7.93,231.21-7.71,298.75,3.58c7.32,1.22,14.65,2.77,21.78,4.61,1.91.49,3.15,2.32,2.91,4.27-.24,1.95-1.9,3.42-3.87,3.43-45.3.22-89.44,16.48-124.29,45.79-35.24,29.64-58.85,71-66.47,116.44-8.58,51.18,3.31,102.64,33.5,144.89,30.18,42.25,75.04,70.24,126.31,78.81,45.52,7.61,92.37-1.21,131.93-24.82,39.11-23.35,68.89-59.72,83.85-102.41.65-1.86,2.58-2.94,4.5-2.53,1.93.41,3.25,2.18,3.09,4.14-.59,7.32-1.5,14.74-2.73,22.07-11.31,67.42-48.23,126.42-103.98,166.11-43.93,31.28-95.41,47.63-148.3,47.63ZM255.89,7.82c-51.28,0-101.19,15.85-143.78,46.17C58.07,92.47,22.26,149.66,11.3,215.03c-10.96,65.37,4.23,131.08,42.78,185.04,38.55,53.96,95.83,89.7,161.3,100.64,65.47,10.94,131.3-4.22,185.34-42.71,52.23-37.19,87.41-91.84,99.62-154.46-17.21,32.96-43.42,60.84-75.78,80.16-41.14,24.56-89.88,33.73-137.23,25.82-53.33-8.91-99.99-38.03-131.39-81.98-31.4-43.95-43.77-97.48-34.84-150.72,7.93-47.27,32.48-90.29,69.15-121.13,28.83-24.25,63.79-39.92,100.6-45.42-11.67-1.64-23.35-2.45-34.95-2.45Z"/>
</svg>