<?xml version="1.0" encoding="UTF-8"?>
<svg id="Objects" xmlns="http://www.w3.org/2000/svg" viewBox="0 0 512 512">
  <defs>
    <style>
      .cls-1 {
        fill: #1d1d1b;
      }
    </style>
  </defs>
  <path class="cls-1" d="M256,423.41c-44.72,0-86.76-17.41-118.37-49.03-31.62-31.62-49.03-73.66-49.03-118.37s17.41-86.76,49.03-118.37c31.62-31.62,73.66-49.03,118.37-49.03s86.76,17.41,118.37,49.03c31.62,31.62,49.03,73.66,49.03,118.37s-17.41,86.76-49.03,118.37c-31.62,31.62-73.66,49.03-118.37,49.03ZM282.84,82.29c-.17,0-.35-.01-.52-.04-17.29-2.6-35.35-2.6-52.64,0-1.22.19-2.44-.29-3.23-1.24-.78-.95-1.01-2.24-.6-3.4L252.7,2.33c.5-1.4,1.82-2.33,3.3-2.33s2.8.93,3.3,2.33l26.84,75.28c.41,1.16.19,2.45-.6,3.4-.67.82-1.67,1.28-2.71,1.28ZM111.71,153.17c-.11,0-.23,0-.34-.02-1.23-.12-2.3-.87-2.83-1.99l-34.25-72.21c-.64-1.34-.36-2.93.69-3.98,1.05-1.05,2.64-1.32,3.98-.69l72.21,34.25c1.11.53,1.87,1.6,1.99,2.83.12,1.23-.42,2.42-1.41,3.16-7.03,5.19-13.76,10.99-20,17.23-6.24,6.24-12.03,12.97-17.23,20-.66.9-1.71,1.42-2.82,1.42ZM78.78,286.35c-.4,0-.79-.07-1.18-.2L2.33,259.3c-1.4-.5-2.33-1.82-2.33-3.3s.93-2.8,2.33-3.3l75.28-26.84c1.16-.41,2.45-.19,3.4.6.95.78,1.42,2.01,1.24,3.23-1.3,8.64-1.96,17.5-1.96,26.32s.66,17.68,1.96,26.32c.18,1.22-.29,2.44-1.24,3.23-.64.52-1.43.8-2.23.8ZM77.46,438.05c-.91,0-1.81-.35-2.48-1.03-1.05-1.05-1.32-2.64-.69-3.98l34.25-72.21c.53-1.11,1.6-1.87,2.83-1.99,1.23-.12,2.43.42,3.16,1.41,5.19,7.03,10.99,13.76,17.23,20,6.24,6.24,12.97,12.03,20,17.23.99.73,1.53,1.93,1.41,3.16-.12,1.23-.87,2.3-1.99,2.83l-72.21,34.25c-.48.23-.99.34-1.5.34ZM256,512c-1.48,0-2.8-.93-3.3-2.33l-26.84-75.28c-.41-1.16-.19-2.45.6-3.4.78-.95,2.01-1.42,3.23-1.24,17.29,2.6,35.36,2.6,52.64,0,1.22-.19,2.44.29,3.23,1.24.78.95,1.01,2.24.6,3.4l-26.84,75.28c-.5,1.4-1.82,2.33-3.3,2.33ZM434.54,438.05c-.51,0-1.02-.11-1.5-.34l-72.21-34.25c-1.11-.53-1.87-1.6-1.99-2.83-.12-1.23.42-2.43,1.41-3.16,7.03-5.19,13.76-10.99,20-17.23,6.24-6.24,12.03-12.97,17.22-20,.73-.99,1.93-1.52,3.16-1.41,1.23.12,2.3.87,2.83,1.99l34.25,72.21c.63,1.34.36,2.93-.69,3.98-.67.67-1.57,1.03-2.48,1.03ZM433.22,286.35c-.8,0-1.59-.27-2.23-.8-.95-.78-1.42-2.01-1.24-3.23,1.3-8.64,1.96-17.5,1.96-26.32s-.66-17.68-1.96-26.32c-.18-1.22.29-2.44,1.24-3.23.95-.78,2.24-1.01,3.4-.6l75.28,26.84c1.4.5,2.33,1.82,2.33,3.3s-.93,2.8-2.33,3.3l-75.28,26.84c-.38.14-.78.2-1.18.2ZM400.29,153.17c-1.11,0-2.15-.52-2.82-1.42-5.19-7.03-10.99-13.76-17.22-20s-12.97-12.03-20-17.23c-.99-.73-1.53-1.93-1.41-3.16.12-1.23.87-2.3,1.99-2.83l72.21-34.25c1.34-.64,2.93-.36,3.98.69,1.05,1.05,1.32,2.64.69,3.98l-34.25,72.21c-.53,1.11-1.6,1.87-2.83,1.99-.11.01-.23.02-.34.02Z"/>
</svg>