<?xml version="1.0" encoding="UTF-8"?>
<svg id="Camada_1" xmlns="http://www.w3.org/2000/svg" version="1.1" xmlns:xlink="http://www.w3.org/1999/xlink" viewBox="0 0 512 512">
  <!-- Generator: Adobe Illustrator 29.3.1, SVG Export Plug-In . SVG Version: 2.1.0 Build 151)  -->
  <defs>
    <style>
      .st0 {
        fill: url(#Gradiente_sem_nome_5);
      }

      .st1 {
        fill: #05000b;
      }

      .st2 {
        fill: url(#Gradiente_sem_nome_2);
      }

      .st3 {
        fill: url(#Gradiente_sem_nome);
      }

      .st4 {
        fill: url(#Gradiente_sem_nome_4);
      }

      .st5 {
        fill: url(#Gradiente_sem_nome_6);
      }

      .st6 {
        fill: #dadada;
      }

      .st7 {
        fill: url(#Gradiente_sem_nome_3);
      }
    </style>
    <linearGradient id="Gradiente_sem_nome" data-name="Gradiente sem nome" x1="477" y1="189.5" x2="286" y2="262.4" gradientTransform="translate(0 511.9) scale(1 -1)" gradientUnits="userSpaceOnUse">
      <stop offset=".2" stop-color="#005ca9"/>
      <stop offset=".4" stop-color="#014887"/>
      <stop offset=".8" stop-color="#031631"/>
      <stop offset="1" stop-color="#05000b"/>
    </linearGradient>
    <linearGradient id="Gradiente_sem_nome_2" data-name="Gradiente sem nome 2" x1="266.4" y1="327.4" x2="190" y2="43.3" gradientTransform="translate(0 511.9) scale(1 -1)" gradientUnits="userSpaceOnUse">
      <stop offset=".4" stop-color="#005ca9"/>
      <stop offset=".6" stop-color="#014887"/>
      <stop offset=".9" stop-color="#031631"/>
      <stop offset="1" stop-color="#05000b"/>
    </linearGradient>
    <linearGradient id="Gradiente_sem_nome_3" data-name="Gradiente sem nome 3" x1="263.9" y1="385" x2="285.2" y2="485.2" gradientTransform="translate(0 511.9) scale(1 -1)" gradientUnits="userSpaceOnUse">
      <stop offset=".4" stop-color="#005ca9"/>
      <stop offset=".6" stop-color="#014887"/>
      <stop offset=".9" stop-color="#031631"/>
      <stop offset="1" stop-color="#05000b"/>
    </linearGradient>
    <linearGradient id="Gradiente_sem_nome_4" data-name="Gradiente sem nome 4" x1="262.5" y1="242.3" x2="29.1" y2="300.2" gradientTransform="translate(0 511.9) scale(1 -1)" gradientUnits="userSpaceOnUse">
      <stop offset=".4" stop-color="#005ca9"/>
      <stop offset=".6" stop-color="#014887"/>
      <stop offset=".9" stop-color="#031631"/>
      <stop offset="1" stop-color="#05000b"/>
    </linearGradient>
    <linearGradient id="Gradiente_sem_nome_5" data-name="Gradiente sem nome 5" x1="189.8" y1="364.7" x2="143.8" y2="39.5" gradientTransform="translate(0 511.9) scale(1 -1)" gradientUnits="userSpaceOnUse">
      <stop offset=".1" stop-color="#005ca9"/>
      <stop offset=".2" stop-color="#0c4f9f"/>
      <stop offset=".5" stop-color="#213a8f"/>
      <stop offset="1" stop-color="#05000b"/>
    </linearGradient>
    <linearGradient id="Gradiente_sem_nome_6" data-name="Gradiente sem nome 6" x1="219.7" y1="332.3" x2="327.8" y2="36.6" gradientTransform="translate(0 511.9) scale(1 -1)" gradientUnits="userSpaceOnUse">
      <stop offset=".4" stop-color="#005ca9"/>
      <stop offset=".6" stop-color="#014887"/>
      <stop offset=".9" stop-color="#031631"/>
      <stop offset="1" stop-color="#05000b"/>
    </linearGradient>
  </defs>
  <path class="st1" d="M292,174c1.4,1.4,1.3,4.2.9,5.9,9.9,0,8,7.2,16.1,3.5-9.8-10.9-14.2-14.2-19.4-18.3-7.7.9-14.7,1.7-23.3,2.8-3.6,4.6-3.6,8.6-3,8.6,2.3,0,4.1-4.9,8.6-2.7,2.7,3.7,5,6.7,10.3,7.7,3.5.6,9.1-1.5,9.7-7.7h.1Z"/>
  <path class="st3" d="M371.8,190.6c3.2-9.9-4.9-18.8-4.9-18.8-1.3,6.2-6.3,7.2-6.3,7.2,0,0-9.5-9.1-10.6-11.1,9.8-4.4,16.2-3.5,24.3,1.4,0-.1,1.7-3.2,1.9-3.7-7.1-18.9-26.4-33.6-43.8-38.7,41.2-21.6,124.5,5.7,140.1,51.3-.3,0-23-23.4-56.7-13.9,34.1,6.2,63.9,39.6,68.6,70.1.5,3.7,1.7,15.1,1.4,26.5-4.6-14.7-26.5-32.6-55.9-33.1,55.4,32.8,48.9,89.1,38.1,116.9-3.3,9.3-17.4,37.2-35.1,57.9,16.2-46.2-15.3-81.2-36.8-87.6,24.6,26,37.7,102.3-22.3,138.5,0-.3,8-20.1-5.5-50.3-20.2-45.3-69.9-64-102.6-93.2,10.7,4,35.4,3.3,43.9,5.9,5.4,1.7,15.1,8.9,15.6,18.4,12.4,1,28.6-.5,37.6-12.7,2.1.9,3.5,2.4,5,4.6,7.2-11.5,12-21.9,10.2-35.8-2.1-17-9.1-18.4-13.8-19.3-8-1.5-20.1,3.9-31.4,8.4-9.4,3.7-13.3,5.5-18.2,7.2-3.9,1.3-12.2,2.8-17-1-2.3-1.8-7-12.9-3.2-12.6,3.6,1,16.2,5.8,26.4,5.3,10.4-.4,20.6-6.2,31.5-13.5,3.7-2.6,8.1-3.2,11.6-3.1.6-3.6,1.4-11.7-.4-16.1-2.6-6.3-8.5-6.4-19.7-14.7-3.6-2.7-4.9-9.7-3-10.8,2.7-1.5,18.4,6.2,33.1,5.7,9.5-.4,15.7-5.1,17-4.6,1,.4-1.4,8.2-4.4,10.2-6.1,4-11.7,9.1-15.3,14.8-1.8,2.8-4.5,12.6-5.2,16,12,1.4,14.2,23.8,14.2,23.7,13.4,1.8,15.2-45.9,11.3-54.4,1.7-3.1,3.7-9.3,2.7-11.5-5-10-17-23.3-22.7-29.6v.3Z"/>
  <path class="st2" d="M219.4,171.9c-33.3,27.8-55.2,96.4-49.2,165.1,3.3,37.1,24.7,119.7,86.6,149.5h.1c40.9-167.8-93.2-156.1-37.7-314.6h.1Z"/>
  <path class="st7" d="M379,61.3c-28.5,4-47.9,33.7-55.5,54.2h-.3c1.7-41.4,20.6-57,34.6-66-28.1-13.9-59.4-22.4-92.6-23.8h-2.3c51.1,32.7,55,95.7,55,96.4h-.3c-16.6-46.5-56.4-80.4-102-93-31.8,5.7-61.4,17.8-87.4,35.1,57.8-10.4,121.9,6.3,169.9,51.3,7.9,7.5,15.1,15.2,21.6,23.3,4.8-13.4,22.4-43.6,56.3-42.7,22.5.6,32.3,11.8,38,24.5,0-.6,3.6-15.6,1.4-30.4h0c-11.1-10.8-23.2-20.3-36.2-28.7h-.4Z"/>
  <path class="st4" d="M87.4,98.5c-28.3,30.2-48.7,68.1-57.4,110.3,65.7-89.7,167.5-99.7,207.9-92.8-49.6,4.1-106.3,26.6-139.2,54.9-35.9,31-58.8,67-72.9,102.3v.4c3.5,44.8,19.8,86.2,45.6,120.5-4.2-48.9,12.7-114.1,53-168.1,55.6-74.4,119-108.4,173.2-98.3-61.2-54.4-142.9-55.5-210.2-29.3h0Z"/>
  <path class="st0" d="M157.8,376.5c-18.4-92,12.4-182.4,67.6-224.3-43.8,21.2-89.9,71.6-111.4,123.7-22.7,55-26.8,109.4-10.7,152.9,29.5,26,65.7,44.5,105.7,52.9-23.8-25-42.5-61-51.4-105.3h.1Z"/>
  <path class="st5" d="M334,380.7c-12-13-36.2-34.5-60.1-51.1-7.7-5.4-54.8-40.3-46.9-101.2,3,20.7,21.4,16.7,27.4,40.3,3.1-45.9-31.7-41.8-29.1-90.7,0-.6,0-.5-.1-.3-7.9,29.1-9,53.5-6.1,75,5.7,46.1,30,77.1,48.8,110.7,15.4,28.4,27,58.3,21.2,98.6-1,7.2-2.7,14.8-4.9,22.8,21.9-2.7,43-8.5,62.7-17v-.4c12.9-29,9.4-62.3-13-86.7Z"/>
  <path class="st6" d="M245.2,511.8C104.1,505.9-5.8,386.3.2,245.3,6.2,104.2,125.8-5.7,266.8.2c141.1,5.9,251.1,125.5,245,266.5-5.9,141-125.5,250.9-266.5,245ZM266.2,13.2C132.2,7.6,18.6,111.9,13,245.9c-5.7,134,98.9,247.5,232.8,253.1,134,5.7,247.6-98.8,253.3-232.7,5.7-134-98.8-247.5-232.8-253.1Z"/>
</svg>
