<?xml version="1.0" encoding="UTF-8"?>
<svg id="Layer_1" data-name="Layer 1" xmlns="http://www.w3.org/2000/svg" viewBox="0 0 512 512">
  <defs>
    <style>
      .cls-1 {
        fill: #fff;
        fill-rule: evenodd;
      }
    </style>
  </defs>
  <path class="cls-1" d="M256,0c141.38,0,256,114.62,256,256s-114.62,256-256,256S0,397.38,0,256h0C0,114.62,114.62,0,256,0ZM301.42,207.17c5.96-5.86,15.54-5.77,21.4.19,5.86,5.96,5.77,15.54-.19,21.4h0l-57.5,56.79c-5.9,5.79-15.35,5.79-21.25,0l-56.67-55.96c-5.76-6.05-5.54-15.62.51-21.38,5.74-5.48,14.74-5.58,20.61-.24l31.21,30.92.33-108.87c.5-8.36,7.69-14.73,16.05-14.23,7.76.47,13.9,6.72,14.24,14.48l-.33,108.04,31.5-31.13h.08ZM135.42,346.21v-59.25c.51-8.36,7.7-14.72,16.07-14.21,7.76.48,13.9,6.74,14.23,14.5v43.12h180.42v-43.42c-.35-8.37,6.15-15.44,14.52-15.79,8.37-.35,15.44,6.15,15.79,14.52.02.52.02,1.04-.02,1.56v58.96h0c-.38,8.03-6.96,14.38-15,14.46h-210.79c-8.05-.06-14.65-6.41-15-14.46h-.21Z"/>
</svg>
